<svg xmlns="http://www.w3.org/2000/svg" viewBox="0 0 100 100" x="0px" y="0px"><title>Artboard 11</title><g data-name="Layer 4"><path d="M94.40869,47.21545a44.95707,44.95707,0,0,0-2.12354-11.12122l-.00031-.00079-.00018-.00067-.00012-.00012a44.69976,44.69976,0,0,0-2.25476-5.5614,44.68265,44.68265,0,0,0-7.72559-11.124q-.71741-.76263-1.47662-1.49414a44.24092,44.24092,0,0,0-4.88519-4.06885q-1.2085-.87085-2.46912-1.65637a43.83324,43.83324,0,0,0-7.95959-3.90662l-.001-.00018A44.10679,44.10679,0,0,0,53.2124,5.63184c-.29779-.02539-.59418-.0423-.89-.05939-.28278-.0166-.568-.02209-.85217-.03265l-.96191-.03a.54848.54848,0,0,0-.0849.00171c-.08264-.00092-.16425-.00635-.24695-.00671a1.94961,1.94961,0,0,0-.35083-.00006c-.0625.00031-.12408.00452-.18652.00507a.55551.55551,0,0,0-.19232,0l-1.038.03326c-.24164.0097-.48419.01477-.72479.02887-.29791.01721-.59631.03424-.88812.059A44.593,44.593,0,0,0,13.208,24.96729a43.62942,43.62942,0,0,0-3.23779,5.56445,44.64948,44.64948,0,0,0-2.25488,5.561A45.05781,45.05781,0,0,0,5.59082,47.21729C5.53076,48.13916,5.5,49.0752,5.5,50s.03076,1.86084.09082,2.78271l.00049.00183A45.017,45.017,0,0,0,7.71484,63.90576l.00031.00079.00018.00067.00012.00012a44.69975,44.69975,0,0,0,2.25476,5.5614,44.68265,44.68265,0,0,0,7.72559,11.124q.71814.76318,1.47766,1.49487a44.25266,44.25266,0,0,0,4.88416,4.06812q1.2085.87085,2.46912,1.65637a43.83324,43.83324,0,0,0,7.95959,3.90662l.001.00018A44.10679,44.10679,0,0,0,46.7876,94.36816c.29694.02539.59344.0423.89.05939.28326.0166.569.02216.8537.03271l.96088.03a.56716.56716,0,0,0,.08453-.00171c.08258.00092.16418.00635.24683.00671a1.9496,1.9496,0,0,0,.35083.00006c.06024-.00031.11951-.00439.17969-.00488A.66593.66593,0,0,0,50.46,94.5a.46918.46918,0,0,0,.09326-.00977l1.02393-.0329c.25055-.01.502-.01562.7514-.03027.294-.017.588-.03363.87555-.05792A44.593,44.593,0,0,0,86.792,75.03271a43.62942,43.62942,0,0,0,3.23779-5.56445,44.64948,44.64948,0,0,0,2.25488-5.561,45.0092,45.0092,0,0,0,2.12451-11.12451C94.46924,51.86865,94.5,50.93213,94.5,50s-.03076-1.86865-.09082-2.78271Zm-1.37024,8.999c-.07428.51453-.15161,1.02789-.24481,1.53552H91.10309q.36667-2.21494.5235-4.5h1.73578c-.05084.70642-.10858,1.41241-.19482,2.11292C93.13232,55.64929,93.07953,55.92981,93.03845,56.21448ZM91.889,61.70386c-.14429.51978-.2901,1.03864-.45312,1.54614h-1.576q.646-2.20285,1.07526-4.5H92.5979c-.14038.69873-.28564,1.39636-.45966,2.08136C92.06317,61.12683,91.97015,61.41168,91.889,61.70386Zm-1.91724,5.437c-.23138.53937-.463,1.07849-.71619,1.60913H87.85a45.91682,45.91682,0,0,0,1.69171-4.5h1.55286c-.23389.675-.47034,1.3501-.74005,2.01855C90.236,66.56226,90.09686,66.84912,89.97174,67.14087Zm-2.83008,5.46948c-.33807.55249-.67542,1.10565-1.03687,1.63965H84.97925a45.33627,45.33627,0,0,0,2.41919-4.5h1.34845c-.34442.674-.68921,1.34821-1.069,2.00342C87.50842,72.04565,87.31775,72.32251,87.14166,72.61035Zm-2.49951,3.68408c-.24475.32184-.48907.644-.74194.95795-.126.15637-.25745.3067-.38531.461-.23871.28809-.47656.57721-.7218.85785-.14532.16626-.29578.32568-.44324.4892-.20886.23157-.4173.46368-.63043.68958h-.702a44.49923,44.49923,0,0,0,3.33441-4.5h1.05841c-.15033.21027-.2959.42438-.44971.63171C84.85681,76.02148,84.74738,76.156,84.64215,76.29443ZM78.63831,82.7392c-.185.162-.37885.31525-.56683.4743-.33447.2829-.66656.56805-1.01025.84137-.21808.17334-.44464.33691-.66626.50623-.30273.23138-.60345.46521-.91266.6889h-.04358a43.15181,43.15181,0,0,0,4.69678-4.5h.60742c-.20032.20123-.39349.408-.59839.60559-.13538.13055-.27887.25415-.41614.38306C79.36926,82.07587,79.01025,82.41339,78.63831,82.7392ZM22.93817,84.05432c-.33789-.26874-.66455-.5495-.99365-.82764-.19336-.16345-.3924-.321-.58258-.48755-.37012-.32422-.72748-.66034-1.08514-.996-.1391-.13062-.2843-.25574-.42151-.38806-.20465-.19739-.39777-.404-.598-.605h.60724a43.15181,43.15181,0,0,0,4.69678,4.5H24.5174c-.29932-.21649-.59021-.44318-.88354-.667C23.40222,84.40631,23.16589,84.23541,22.93817,84.05432Zm-5.73346-5.4856c-.23987-.27454-.47253-.55762-.70624-.83936-.13275-.16-.269-.31592-.39972-.47821-.25635-.31824-.50427-.645-.75232-.97137-.10126-.13324-.20648-.26257-.30627-.39709-.15405-.20764-.3-.42206-.45056-.63269h1.05859a44.49923,44.49923,0,0,0,3.33441,4.5H18.2804c-.20813-.22064-.41168-.44751-.61578-.67358C17.51147,78.90686,17.35553,78.74121,17.20471,78.56873Zm-4.883-6.81592c-.37976-.655-.72449-1.3291-1.06879-2.00281h1.34863a45.33627,45.33627,0,0,0,2.41919,4.5H13.89484c-.35651-.52686-.68909-1.07288-1.02295-1.61792C12.691,72.33685,12.49554,72.05261,12.32172,71.75281ZM7.86212,60.83258c-.174-.68494-.31915-1.38312-.45966-2.08258H9.06494q.43085,2.29367,1.07526,4.5h-1.576c-.16473-.51257-.312-1.03656-.45758-1.56171C8.0271,61.40167,7.93573,61.12244,7.86212,60.83258ZM6.95874,43.80347c.075-.52075.15356-1.04.248-1.55347H8.89691q-.36667,2.21494-.5235,4.5H6.63763c.05084-.707.10852-1.41351.19489-2.11432C6.867,44.35571,6.9187,44.08173,6.95874,43.80347Zm1.14587-5.485c.14612-.52734.29407-1.05341.45953-1.56842h1.576q-.646,2.20285-1.07526,4.5H7.40247c.1405-.69965.28577-1.39813.46-2.08423C7.93536,38.87891,8.02594,38.60223,8.10461,38.31842Zm1.92365-5.45929c.23138-.53937.463-1.07849.71619-1.60913H12.15a45.91682,45.91682,0,0,0-1.69171,4.5H8.90546c.23389-.675.47034-1.3501.74005-2.01855C9.764,33.43774,9.90314,33.15088,10.02826,32.85913Zm2.83008-5.46948c.33807-.55249.67542-1.10565,1.03687-1.63965h1.12555a45.33627,45.33627,0,0,0-2.41919,4.5H11.25311c.34442-.674.68921-1.34821,1.069-2.00342C12.49158,27.95435,12.68225,27.67749,12.85834,27.38965Zm2.49951-3.68408c.24475-.32184.48907-.644.74194-.95795.126-.15637.25745-.3067.38531-.461.23871-.28809.47656-.57721.7218-.85785.14532-.16626.29578-.32568.44324-.4892.20886-.23157.4173-.46368.63043-.68958h.702a44.49923,44.49923,0,0,0-3.33441,4.5H14.58978c.15033-.21027.2959-.42438.44971-.63171C15.14319,23.97852,15.25262,23.844,15.35785,23.70557Zm6.00494-6.4455c.18488-.16193.37854-.315.56647-.474.33447-.283.66681-.5683,1.01044-.84155.21753-.17291.44354-.33606.66455-.50494.303-.23163.60406-.4657.91351-.68958h.04352a43.15181,43.15181,0,0,0-4.69678,4.5h-.60724c.20056-.20142.394-.40833.59906-.60608.13556-.13074.27917-.25446.41663-.38354C20.63208,17.92322,20.991,17.58575,21.36279,17.26007Zm55.69989-1.31384c.33771.26855.66412.54907.99292.827.19366.1637.39313.32153.58362.48834.36505.31976.71729.65143,1.07013.9823.14423.13531.29474.26508.43683.40216.20428.197.397.40326.59674.60394H80.1355a43.15181,43.15181,0,0,0-4.69678-4.5h.04388c.29926.21649.59009.44305.8833.66681C76.59784,15.59375,76.83466,15.76489,77.06268,15.94623Zm5.7326,5.485c.23987.27454.47253.55762.70624.83936.13275.16.269.31592.39972.47821.25635.31824.50427.645.75232.97137.10126.13324.20648.26257.30627.39709.15405.20764.3.42206.45056.63269H84.35181a44.49923,44.49923,0,0,0-3.33441-4.5h.70221c.20813.22064.41168.44751.61578.67358C82.48853,21.09314,82.64447,21.25879,82.79529,21.43127Zm4.883,6.81592c.37976.655.72449,1.3291,1.06879,2.00281H87.39844a45.33627,45.33627,0,0,0-2.41919-4.5h1.12592c.35651.52686.68909,1.07288,1.02295,1.61792C87.309,27.66315,87.50446,27.94739,87.67828,28.24719Zm4.46033,10.923c.17371.684.31891,1.38123.45941,2.07977h-1.663q-.43085-2.29367-1.07526-4.5h1.57611c.16229.505.30725,1.02167.451,1.53925C91.96893,38.58429,92.06274,38.8717,92.13861,39.17023ZM90.75,50q0,1.132-.05414,2.25H86.20349q.04559-1.11823.04651-2.25,0-1.13187-.04651-2.25h4.49237Q90.74951,48.868,90.75,50ZM10.74426,68.75c-.2511-.52631-.48059-1.0611-.71021-1.59595-.12726-.29633-.26831-.58752-.38873-.88593-.26959-.66815-.506-1.3432-.73987-2.01813h1.55286A45.91682,45.91682,0,0,0,12.15,68.75Zm.76288-4.5h4.16022q.63757,2.30859,1.46887,4.5H13.23541A44.94262,44.94262,0,0,1,11.50714,64.25Zm-4.30066-6.5c-.09351-.50842-.17114-1.02344-.24561-1.53979-.04089-.28339-.09344-.5625-.12854-.84772-.08606-.69958-.14374-1.4057-.19446-2.11249H8.37341q.15564,2.28378.5235,4.5Zm2.16913-4.5h4.48151q.13513,2.28378.45459,4.5H9.91064Q9.536,55.53607,9.37561,53.25ZM9.25,50q0-1.132.05414-2.25h4.49237Q13.75092,48.86823,13.75,50q0,1.13187.04651,2.25H9.30414Q9.25049,51.132,9.25,50ZM89.25574,31.25c.2511.52631.48059,1.0611.71021,1.59595.12726.29633.26831.58752.38873.88593.26959.66815.506,1.3432.73987,2.01813H89.54169A45.91682,45.91682,0,0,0,87.85,31.25Zm-.76288,4.5H84.33264q-.63757-2.30859-1.46887-4.5h3.90082A44.94262,44.94262,0,0,1,88.49286,35.75ZM85.25,50q0,1.132-.04687,2.25H80.71051q.03864-1.11823.03949-2.25,0-1.13187-.03949-2.25h4.49261Q85.24954,48.868,85.25,50Zm-70.5,0q0-1.132.04688-2.25h4.49261Q19.25085,48.86823,19.25,50q0,1.13187.03949,2.25H14.79688Q14.75046,51.132,14.75,50Zm65,0q0,1.132-.03955,2.25h-4.4928q.03177-1.11823.03235-2.25,0-1.13187-.03235-2.25h4.4928Q79.74963,48.868,79.75,50Zm-59.5,0q0-1.132.03955-2.25h4.4928Q24.75058,48.86823,24.75,50q0,1.13187.03235,2.25h-4.4928Q20.25037,51.132,20.25,50Zm54,0q0,1.132-.03223,2.25h-4.4931q.02481-1.11823.02533-2.25,0-1.13187-.02533-2.25h4.4931Q74.24973,48.868,74.25,50ZM57.92279,90.75a24.69832,24.69832,0,0,0,3.51093-4.5h1.95087a23.80146,23.80146,0,0,1-4.90546,4.5Zm4.111-5.5a41.84186,41.84186,0,0,0,2.22186-4.5h2.88055a36.50287,36.50287,0,0,1-2.95215,4.5Zm2.639-5.5c.56757-1.41974,1.09369-2.92432,1.57739-4.5h3.47742a48.24274,48.24274,0,0,1-2.05963,4.5Zm-23.152,11a23.80146,23.80146,0,0,1-4.90546-4.5h1.95087a24.69832,24.69832,0,0,0,3.51093,4.5Zm-5.705-5.5a36.50287,36.50287,0,0,1-2.95215-4.5h2.88055a41.84186,41.84186,0,0,0,2.22186,4.5ZM32.332,79.75a48.24274,48.24274,0,0,1-2.05963-4.5h3.47742c.4837,1.57568,1.00983,3.08026,1.57739,4.5ZM25.75,50q0-1.132.03223-2.25h4.4931Q30.25052,48.86823,30.25,50q0,1.13187.02533,2.25h-4.4931Q25.75027,51.132,25.75,50ZM42.07721,9.25a24.69832,24.69832,0,0,0-3.51093,4.5H36.61542a23.80146,23.80146,0,0,1,4.90546-4.5Zm-4.111,5.5a41.84186,41.84186,0,0,0-2.22186,4.5H32.86377a36.50287,36.50287,0,0,1,2.95215-4.5Zm-2.639,5.5c-.56757,1.41974-1.09369,2.92432-1.57739,4.5H30.27234a48.24274,48.24274,0,0,1,2.05963-4.5Zm23.152-11a23.80146,23.80146,0,0,1,4.90546,4.5H61.43372a24.69832,24.69832,0,0,0-3.51093-4.5Zm5.705,5.5a36.50287,36.50287,0,0,1,2.95215,4.5H64.25568a41.84186,41.84186,0,0,0-2.22186-4.5Zm3.48395,5.5a48.24274,48.24274,0,0,1,2.05963,4.5H66.25024c-.4837-1.57568-1.00983-3.08026-1.57739-4.5Zm-2.41467,4.5H61.802q-.51462-2.36884-1.123-4.5h2.98193Q64.52,22.3721,65.25336,24.75ZM68.75,50q0,1.132-.0249,2.25H64.23236q.017-1.1174.01764-2.25,0-1.13287-.01764-2.25H68.7251Q68.74982,48.868,68.75,50Zm-37.5,0q0-1.132.0249-2.25h4.49274q-.017,1.1174-.01764,2.25,0,1.13287.01764,2.25H31.2749Q31.25018,51.132,31.25,50Zm32,0q0,1.131-.01886,2.25H58.738q.01108-1.12637.012-2.25,0-1.123-.012-2.25h4.4931Q63.24954,48.869,63.25,50Zm-26.5,0q0-1.131.01886-2.25H41.262q-.01108,1.12637-.012,2.25,0,1.123.012,2.25h-4.4931Q36.75046,51.131,36.75,50Zm21,0q0,1.13589-.01117,2.25H53.2464q.00348-1.12024.0036-2.25t-.0036-2.25h4.49243Q57.74936,48.8652,57.75,50Zm-15.5,0q0-1.13589.01117-2.25H46.7536Q46.75012,48.87024,46.75,50t.0036,2.25H42.26117Q42.25064,51.1348,42.25,50Zm10,0q0,1.13516-.00366,2.25H47.75366Q47.75018,51.13461,47.75,50q0-1.13516.00366-2.25h4.49268Q52.24982,48.86539,52.25,50Zm-.00824,3.25q-.01053,2.2955-.03516,4.5H47.7934q-.02463-2.20312-.03516-4.5Zm-4.48352-6.5q.01053-2.2955.03516-4.5H52.2066q.02463,2.20313.03516,4.5Zm.04681-5.5q.02939-2.30777.07343-4.5h4.243q.04367,2.1936.07343,4.5Zm-1.00085,0H42.41577q.08807-2.30768.21942-4.5h4.24164Q46.83344,38.96274,46.8042,41.25Zm-.01111,1q-.02454,2.223-.03491,4.5H42.27484q.03149-2.29761.10571-4.5Zm-.03491,11q.01035,2.27536.03491,4.5H42.38055q-.074-2.20139-.10571-4.5Zm.046,5.5q.02866,2.28708.07263,4.5H42.63519q-.13138-2.18976-.21942-4.5Zm1.00085,0h4.38989q-.02939,2.30777-.07343,4.5h-4.243Q47.83481,61.0564,47.80505,58.75Zm5.39075,0h4.38843q-.08807,2.30768-.21942,4.5H53.12317Q53.16656,61.03726,53.1958,58.75Zm.01111-1q.02454-2.223.03491-4.5h4.48334q-.03149,2.29761-.10571,4.5Zm.03491-11q-.01035-2.27536-.03491-4.5h4.41254q.074,2.20139.10571,4.5Zm-.046-5.5q-.02866-2.28708-.07263-4.5h4.24164q.13138,2.18976.21942,4.5Zm-.09326-5.5c-.03265-1.5321-.07-3.03607-.11316-4.5h3.96375q.19583,2.17529.348,4.5Zm-1.00116,0H47.89862q.05017-2.32388.11572-4.5h3.97131Q52.05057,33.42923,52.10138,35.75Zm-5.20392,0H42.69891q.15134-2.32388.348-4.5h3.96375C46.96747,32.71393,46.93011,34.2179,46.89746,35.75Zm-5.2016,0H37.51343c.16846-1.538.36078-3.04193.57971-4.5h3.94214Q41.84293,33.46054,41.69586,35.75Zm-.05957,1q-.131,2.22784-.21777,4.5H37.03284q.14932-2.29395.37506-4.5Zm-.25439,5.5q-.07571,2.24323-.10675,4.5H36.79291q.0542-2.281.18195-4.5Zm-.10675,11q.032,2.25339.10675,4.5h-4.407q-.12735-2.21741-.18195-4.5Zm.14337,5.5q.08661,2.26923.21777,4.5H37.4079q-.22311-2.20624-.37506-4.5Zm.27734,5.5q.14548,2.28809.33942,4.5H38.09314c-.21893-1.45807-.41125-2.962-.57971-4.5Zm1.00305,0h4.19855c.03265,1.5321.07,3.03607.11316,4.5H43.04688Q42.851,66.57471,42.69891,64.25Zm5.19971,0h4.20276q-.05017,2.32388-.11572,4.5H48.01434Q47.94943,66.57077,47.89862,64.25Zm5.20392,0h4.19855q-.15134,2.32388-.348,4.5H52.98938C53.03253,67.28607,53.06989,65.7821,53.10254,64.25Zm5.2016,0h4.18243c-.16846,1.538-.36078,3.04193-.57971,4.5H57.96472Q58.15707,66.53946,58.30414,64.25Zm.05957-1q.131-2.22784.21777-4.5h4.38568q-.14932,2.29395-.37506,4.5Zm.25439-5.5q.07571-2.24323.10675-4.5h4.48224q-.0542,2.281-.18195,4.5Zm.10675-11q-.032-2.25339-.10675-4.5h4.407q.12735,2.21741.18195,4.5Zm-.14337-5.5q-.08661-2.26923-.21777-4.5H62.5921q.22311,2.20624.37506,4.5Zm-.27734-5.5q-.14548-2.28809-.33942-4.5h3.94214c.21893,1.45807.41125,2.962.57971,4.5Zm-.42743-5.5q-.21432-2.31244-.48163-4.5h3.52911c.30176,1.44171.57568,2.947.82416,4.5Zm-1.01483,0H52.95813c-.04858-1.54492-.10254-3.04956-.1626-4.5h3.56665Q56.63428,27.90405,56.86188,30.25Zm-4.90631,0H48.04443q.07443-2.34668.16486-4.5h3.58142Q51.88043,27.90625,51.95557,30.25Zm-4.9137,0H43.13812q.22559-2.34906.49969-4.5h3.56665C47.14441,27.20044,47.09045,28.70508,47.04187,30.25Zm-4.91858,0H38.25165c.24847-1.553.5224-3.05829.82416-4.5h3.52911Q42.33914,27.93655,42.12329,30.25Zm-4.94116,0h-3.8797c.343-1.55432.72089-3.06049,1.1391-4.5H37.99Q37.5466,27.91577,37.18213,30.25Zm-.14825,1q-.3175,2.18582-.56036,4.5H32.28857c.23083-1.53967.49408-3.04407.79517-4.5Zm-.66449,5.5q-.21249,2.19992-.353,4.5H31.63116q.203-2.29733.51123-4.5Zm-.40869,5.5q-.11966,2.21164-.17059,4.5H31.3078q.07315-2.2847.24615-4.5Zm-.17059,11q.05063,2.28717.17059,4.5H31.554q-.17239-2.21393-.24615-4.5Zm.22626,5.5q.14127,2.29669.353,4.5h-4.227q-.3045-2.20322-.51123-4.5Zm.45715,5.5q.24252,2.31207.56036,4.5H33.08374c-.30109-1.45593-.56433-2.96033-.79517-4.5Zm.70862,5.5q.36209,2.33514.80786,4.5H34.44153c-.41821-1.43951-.79608-2.94568-1.1391-4.5Zm1.06952,0h3.87164q.21432,2.31244.48163,4.5H39.07581C38.774,72.80829,38.50012,71.303,38.25165,69.75Zm4.88647,0h3.90375c.04858,1.54492.10254,3.04956.1626,4.5H43.63782Q43.36572,72.09595,43.13812,69.75Zm4.90631,0h3.91113q-.07443,2.34668-.16486,4.5H48.20929Q48.11957,72.09375,48.04443,69.75Zm4.9137,0h3.90375q-.22559,2.34906-.49969,4.5H52.79553C52.85559,72.79956,52.90955,71.29492,52.95813,69.75Zm4.91858,0h3.87164c-.24847,1.553-.5224,3.05829-.82416,4.5H57.39508Q57.66086,72.06345,57.87671,69.75Zm4.94116,0h3.8797c-.343,1.55432-.72089,3.06049-1.1391,4.5H62.01Q62.4534,72.08414,62.81787,69.75Zm.14825-1q.3175-2.18582.56036-4.5h4.18494c-.23083,1.53967-.49408,3.04407-.79517,4.5Zm.66449-5.5q.21249-2.19992.353-4.5h4.38519q-.203,2.29733-.51123,4.5Zm.40869-5.5q.11966-2.21164.17059-4.5h4.4823q-.07315,2.2847-.24615,4.5Zm.17059-11q-.05063-2.28717-.17059-4.5H68.446q.17239,2.21393.24615,4.5Zm-.22626-5.5q-.14127-2.29687-.353-4.5h4.227q.3045,2.20322.51123,4.5Zm-.45715-5.5q-.24252-2.31207-.56036-4.5h3.95013c.30109,1.45593.56433,2.96033.79517,4.5Zm-.70862-5.5q-.36209-2.33514-.80786-4.5h3.54846c.41821,1.43951.79608,2.94568,1.1391,4.5Zm-2.11212-5.5H57.27209q-.30286-2.34933-.6676-4.5h2.95874Q60.1781,22.37512,60.70575,24.75Zm-4.472,0H52.7522c-.06873-1.56506-.14386-3.07037-.22589-4.5h3.01825Q55.91315,22.36157,56.2337,24.75Zm-4.48572,0H48.252q.10492-2.3822.22656-4.5h3.04285Q51.64264,22.36505,51.748,24.75Zm-4.50018,0H43.76636q.31924-2.38422.68909-4.5h3.01825C47.39166,21.67963,47.31653,23.18494,47.2478,24.75Zm-4.5199,0H39.29425q.52615-2.37112,1.14252-4.5h2.95874Q43.03232,22.39948,42.72791,24.75Zm-4.52991,0H34.74664q.732-2.37323,1.59247-4.5H39.321Q38.71451,22.37933,38.198,24.75Zm-4.745,1q-.62778,2.16733-1.14447,4.5H28.40448c.4436-1.55432.93237-3.06049,1.47327-4.5Zm-1.35809,5.5q-.45319,2.18811-.80029,4.5H27.0932c.29852-1.53967.63916-3.04407,1.0285-4.5Zm-.95074,5.5q-.30551,2.20285-.50867,4.5H26.243c.175-1.53156.39868-3.03119.66119-4.5Zm-.58813,5.5q-.17349,2.21494-.24768,4.5H25.82477q.09467-2.2847.31836-4.5Zm-.24768,11q.07361,2.28378.24768,4.5h-4.4129q-.22293-2.21393-.31836-4.5Zm.32715,5.5q.2038,2.29367.50867,4.5h-4.24c-.26251-1.46881-.48615-2.96844-.66119-4.5Zm.65912,5.5q.34735,2.30859.80029,4.5H28.1217c-.38934-1.45593-.73-2.96033-1.0285-4.5Zm1.01392,5.5q.51471,2.33112,1.14447,4.5H29.87775c-.54089-1.43951-1.02966-2.94568-1.47327-4.5Zm2.43811,5.5H38.198q.51462,2.36874,1.123,4.5H36.33911Q35.48,77.6279,34.74664,75.25Zm4.54761,0h3.43365q.30286,2.34933.6676,4.5H40.43677Q39.8219,77.62488,39.29425,75.25Zm4.47211,0H47.2478c.06873,1.56506.14386,3.07037.22589,4.5H44.45544Q44.08685,77.63843,43.76636,75.25Zm4.48566,0h3.496q-.10492,2.3822-.22656,4.5H48.47858Q48.35736,77.63495,48.252,75.25Zm4.50018,0H56.2337q-.31924,2.38422-.68915,4.5H52.52631C52.60834,78.32037,52.68347,76.81506,52.7522,75.25Zm4.5199,0h3.43365q-.52615,2.37112-1.14252,4.5H56.60449Q56.96768,77.60052,57.27209,75.25Zm4.52991,0h3.45135q-.732,2.37323-1.59247,4.5H60.679Q61.28549,77.62076,61.802,75.25Zm4.745-1q.62778-2.16733,1.14447-4.5h3.90405c-.4436,1.55432-.93237,3.06049-1.47327,4.5Zm1.35809-5.5q.45319-2.18811.80029-4.5H72.9068c-.29852,1.53967-.63916,3.04407-1.0285,4.5Zm.95074-5.5q.30551-2.20285.50867-4.5H73.757c-.175,1.53156-.39868,3.03119-.66119,4.5Zm.58813-5.5q.17349-2.21494.24768-4.5h4.48358q-.09467,2.2847-.31836,4.5Zm.24768-11q-.07361-2.28378-.24768-4.5h4.4129q.22293,2.21393.31836,4.5Zm-.32715-5.5q-.2038-2.29367-.50867-4.5h4.24c.26251,1.46881.48615,2.96844.66119,4.5Zm-.65912-5.5q-.34735-2.30859-.80029-4.5H71.8783c.38934,1.45593.73,2.96033,1.0285,4.5Zm-1.01392-5.5q-.51471-2.33112-1.14447-4.5h3.57526c.54089,1.43951,1.02966,2.94568,1.47327,4.5Zm3.46362-4.5h3.53107c.66357,1.43951,1.26312,2.94568,1.80731,4.5H72.61823Q71.96014,27.91888,71.15509,25.75Zm-.37946-1c-.61853-1.57568-1.291-3.08026-2.0166-4.5h2.9162a44.5863,44.5863,0,0,1,2.52679,4.5Zm-2.55-5.5a39.04292,39.04292,0,0,0-2.84058-4.5h2.01605a36.80117,36.80117,0,0,1,3.6217,4.5Zm-3.60779-5.5a26.71014,26.71014,0,0,0-4.48871-4.5h.27307a27.9163,27.9163,0,0,1,6.01807,4.5Zm-9.36481-5.5H55.024c-.11932-.13641-.24054-.261-.36151-.38776C54.86127,7.98071,55.05688,8.11688,55.25305,8.25Zm1.303,1a21.2384,21.2384,0,0,1,3.79291,4.5H58.36017a24.7473,24.7473,0,0,0-2.54248-4.5Zm4.41107,5.5a38.87493,38.87493,0,0,1,2.28259,4.5H60.38306c-.49255-1.62415-1.02454-3.12817-1.59222-4.5Zm-1.6991,4.5H56.43054c-.28986-1.61066-.60645-3.11615-.94885-4.5H57.6474A47.77056,47.77056,0,0,1,59.268,19.25Zm-3.90546,0H52.4668c-.00793-.13007-.01538-.26532-.02344-.394-.09637-1.54236-.19458-2.89923-.29382-4.106h2.2431C54.73358,16.10107,55.05792,17.60931,55.36255,19.25Zm-3.89948,0H48.53693q.14987-2.46478.31866-4.5h2.28882Q51.31213,16.78668,51.46307,19.25Zm-3.90643-.394c-.00806.12872-.0155.264-.02344.394H44.63745c.30463-1.64069.629-3.14893.96991-4.5h2.2431C47.75122,15.95673,47.653,17.3136,47.55664,18.856Zm-3.98718.394H40.732a47.77056,47.77056,0,0,1,1.62061-4.5h2.16571C44.1759,16.13385,43.85931,17.63934,43.56946,19.25Zm-3.95251,0H36.75031a38.87493,38.87493,0,0,1,2.28259-4.5h2.17627C40.64148,16.12183,40.1095,17.62585,39.61694,19.25Zm.03412-5.5A21.2384,21.2384,0,0,1,43.444,9.25h.73834a24.7473,24.7473,0,0,0-2.54248,4.5Zm5.09589-5.5c.19617-.13312.39178-.26929.59058-.38776-.121.12677-.24219.25134-.36151.38776Zm-4.8761,1a26.71014,26.71014,0,0,0-4.48871,4.5H33.57971a27.9163,27.9163,0,0,1,6.01807-4.5Zm-5.25592,5.5a39.04292,39.04292,0,0,0-2.84058,4.5H28.97717a36.80117,36.80117,0,0,1,3.6217-4.5Zm-3.374,5.5c-.72565,1.41974-1.39807,2.92432-2.0166,4.5H25.798a44.5863,44.5863,0,0,1,2.52679-4.5Zm-2.39606,5.5q-.80264,2.16733-1.46313,4.5H23.50653c.54419-1.55432,1.14374-3.06049,1.80731-4.5Zm-1.73621,5.5q-.57944,2.18811-1.02313,4.5H21.89783c.36621-1.53967.78406-3.04407,1.26172-4.5Zm-1.21558,5.5q-.39066,2.20285-.65027,4.5H20.8548c.21478-1.53156.48914-3.03119.81116-4.5Zm-.75189,5.5q-.22174,2.21494-.31665,4.5H20.34174q.11609-2.2847.39056-4.5Zm-.31665,11q.09412,2.28378.31665,4.5H20.7323q-.27365-2.21393-.39056-4.5Zm.41827,5.5q.26065,2.29367.65027,4.5H21.666c-.322-1.46881-.59637-2.96844-.81116-4.5Zm.84271,5.5q.44412,2.30859,1.02313,4.5H23.15955c-.47766-1.45593-.89551-2.96033-1.26172-4.5Zm1.2962,5.5q.65808,2.33112,1.46313,4.5H25.31384c-.66357-1.43951-1.26312-2.94568-1.80731-4.5Zm1.84259,5.5c.61853,1.57568,1.291,3.08026,2.0166,4.5h-2.9162a44.5863,44.5863,0,0,1-2.52679-4.5Zm2.55,5.5a39.04292,39.04292,0,0,0,2.84058,4.5H32.59888a36.80117,36.80117,0,0,1-3.6217-4.5Zm3.60779,5.5a26.71014,26.71014,0,0,0,4.48871,4.5h-.27307a27.9163,27.9163,0,0,1-6.01807-4.5Zm9.36481,5.5H44.976c.11932.13641.24054.261.36151.38776C45.13873,92.01929,44.94312,91.88312,44.74695,91.75Zm-1.303-1a21.2384,21.2384,0,0,1-3.79291-4.5h1.98877a24.7473,24.7473,0,0,0,2.54248,4.5Zm-4.41107-5.5a38.87493,38.87493,0,0,1-2.28259-4.5h2.86664c.49255,1.62415,1.02454,3.12817,1.59222,4.5Zm1.6991-4.5h2.83746c.28986,1.61066.60645,3.11615.94885,4.5H42.3526A47.77056,47.77056,0,0,1,40.732,80.75Zm3.90546,0H47.5332c.00793.13007.01538.26532.02344.394.09637,1.54236.19458,2.89923.29382,4.106h-2.2431C45.26642,83.89893,44.94208,82.39069,44.63745,80.75Zm3.89948,0h2.92615q-.14987,2.46478-.31866,4.5H48.85559Q48.68787,83.21332,48.53693,80.75Zm3.90643.394c.00806-.12872.0155-.264.02344-.394h2.89575c-.30463,1.64069-.629,3.14893-.96991,4.5h-2.2431C52.24878,84.04327,52.347,82.6864,52.44336,81.144Zm3.98718-.394H59.268a47.77056,47.77056,0,0,1-1.62061,4.5H55.48169C55.8241,83.86615,56.14069,82.36066,56.43054,80.75Zm3.95251,0h2.86664a38.87493,38.87493,0,0,1-2.28259,4.5H58.79083C59.35852,83.87817,59.8905,82.37415,60.38306,80.75Zm-.03412,5.5a21.2384,21.2384,0,0,1-3.79291,4.5h-.73834a24.7473,24.7473,0,0,0,2.54248-4.5Zm-5.09589,5.5c-.19617.13312-.39178.26929-.59058.38776.121-.12677.24219-.25134.36151-.38776Zm4.8761-1a26.71014,26.71014,0,0,0,4.48871-4.5h1.80243a27.9163,27.9163,0,0,1-6.01807,4.5Zm5.25592-5.5a39.04292,39.04292,0,0,0,2.84058-4.5h2.79718a36.80117,36.80117,0,0,1-3.6217,4.5Zm3.374-5.5c.72565-1.41974,1.39807-2.92432,2.0166-4.5H74.202a44.5863,44.5863,0,0,1-2.52679,4.5Zm2.39606-5.5q.80264-2.16733,1.46313-4.5h3.87524c-.54419,1.55432-1.14374,3.06049-1.80731,4.5Zm1.73621-5.5q.57944-2.18811,1.02313-4.5h4.18774c-.36621,1.53967-.78406,3.04407-1.26172,4.5Zm1.21558-5.5q.39066-2.20285.65027-4.5H79.1452c-.21478,1.53156-.48914,3.03119-.81116,4.5Zm.75189-5.5q.22174-2.21494.31665-4.5h4.48285q-.11609,2.2847-.39056,4.5Zm.31665-11q-.09412-2.28378-.31665-4.5H79.2677q.27365,2.21393.39056,4.5Zm-.41827-5.5q-.26065-2.29367-.65027-4.5H78.334c.322,1.46881.59637,2.96844.81116,4.5Zm-.84271-5.5q-.44412-2.30859-1.02313-4.5h3.94916c.47766,1.45593.89551,2.96033,1.26172,4.5Zm3.96307-4.5h3.925c.566,1.45593,1.061,2.96033,1.495,4.5h-4.174Q78.58264,33.44141,77.8775,31.25Zm-.33258-1q-.80136-2.33112-1.7818-4.5h3.48682a46.79536,46.79536,0,0,1,2.14148,4.5Zm-2.2439-5.5a46.3201,46.3201,0,0,0-2.45587-4.5h2.83728a43.23907,43.23907,0,0,1,2.9939,4.5Zm-3.10541-5.5a38.92471,38.92471,0,0,0-3.45935-4.5h1.8819a38.75359,38.75359,0,0,1,4.2912,4.5Zm-4.39368-5.5a30.3462,30.3462,0,0,0-5.437-4.48065A33.28716,33.28716,0,0,1,69.45593,13.75ZM53.635,8.25h-.44476q-.22375-.41336-.45624-.76794A8.08407,8.08407,0,0,1,53.635,8.25Zm.91223,1a21.58264,21.58264,0,0,1,2.662,4.5H55.22614A30.37977,30.37977,0,0,0,53.685,9.25Zm-.41888,4.5H52.06409c-.16992-1.90436-.34235-3.3739-.51385-4.5H52.553A28.70488,28.70488,0,0,1,54.12836,13.75Zm-3.06958,0H48.94122c.16193-1.81671.333-3.3288.50879-4.5h1.1C50.72577,10.4212,50.89685,11.93329,51.05878,13.75Zm-3.12286,0H45.87164A28.70488,28.70488,0,0,1,47.447,9.25h1.00281C48.27826,10.3761,48.10583,11.84564,47.93591,13.75Zm-3.162,0H42.79071a21.58264,21.58264,0,0,1,2.662-4.5H46.315A30.37977,30.37977,0,0,0,44.77386,13.75ZM46.365,8.25a8.08407,8.08407,0,0,1,.901-.76794q-.23236.35513-.45624.76794Zm-14.16693,5.5h-1.654A33.28716,33.28716,0,0,1,37.635,9.26935,30.3462,30.3462,0,0,0,32.19806,13.75Zm-.93433,1a38.92471,38.92471,0,0,0-3.45935,4.5H25.09064a38.75359,38.75359,0,0,1,4.2912-4.5Zm-4.10889,5.5a46.3201,46.3201,0,0,0-2.45587,4.5H21.32367a43.23907,43.23907,0,0,1,2.9939-4.5Zm-2.918,5.5q-.97742,2.16733-1.7818,4.5h-3.8465a46.79536,46.79536,0,0,1,2.14148-4.5Zm-2.11438,5.5q-.7056,2.18811-1.246,4.5h-4.174c.434-1.53967.929-3.04407,1.495-4.5Zm-1.48035,5.5q-.47571,2.20285-.79193,4.5H15.46661c.25446-1.53156.57953-3.03119.96112-4.5Zm-.91565,5.5q-.27008,2.21494-.38562,4.5H14.8587q.13751-2.2847.46277-4.5Zm-.38562,11q.11462,2.28378.38562,4.5h-4.405q-.3241-2.21393-.46277-4.5Zm.50934,5.5q.31732,2.29367.79193,4.5H16.42773c-.38159-1.46881-.70667-2.96844-.96112-4.5Zm1.02625,5.5q.54089,2.30859,1.246,4.5h-3.925c-.566-1.45593-1.061-2.96033-1.495-4.5Zm1.57861,5.5q.80136,2.33112,1.7818,4.5H20.75006a46.79536,46.79536,0,0,1-2.14148-4.5Zm2.2439,5.5a46.3201,46.3201,0,0,0,2.45587,4.5H24.31757a43.23907,43.23907,0,0,1-2.9939-4.5Zm3.10541,5.5a38.92471,38.92471,0,0,0,3.45935,4.5h-1.8819a38.75359,38.75359,0,0,1-4.2912-4.5Zm4.39368,5.5a30.3462,30.3462,0,0,0,5.437,4.48065A33.28716,33.28716,0,0,1,30.54407,86.25ZM46.365,91.75h.44476q.22375.41336.45624.76794A8.08407,8.08407,0,0,1,46.365,91.75Zm-.91223-1a21.58264,21.58264,0,0,1-2.662-4.5h1.98315a30.37977,30.37977,0,0,0,1.54114,4.5Zm.41888-4.5h2.06427c.16992,1.90436.34235,3.3739.51385,4.5H47.447A28.70488,28.70488,0,0,1,45.87164,86.25Zm3.06958,0h2.11755c-.16193,1.81671-.333,3.3288-.50879,4.5h-1.1C49.27423,89.5788,49.10315,88.06671,48.94122,86.25Zm3.12286,0h2.06427a28.70488,28.70488,0,0,1-1.57532,4.5H51.55023C51.72174,89.6239,51.89417,88.15436,52.06409,86.25Zm3.162,0h1.98315a21.58264,21.58264,0,0,1-2.662,4.5H53.685A30.37977,30.37977,0,0,0,55.22614,86.25ZM53.635,91.75a8.08407,8.08407,0,0,1-.901.76794q.23236-.35513.45624-.76794Zm14.16693-5.5h1.654A33.28716,33.28716,0,0,1,62.365,90.73065,30.3462,30.3462,0,0,0,67.80194,86.25Zm.93433-1a38.92471,38.92471,0,0,0,3.45935-4.5h2.71375a38.75359,38.75359,0,0,1-4.2912,4.5Zm4.10889-5.5a46.3201,46.3201,0,0,0,2.45587-4.5h3.37531a43.23907,43.23907,0,0,1-2.9939,4.5Zm2.918-5.5q.97742-2.16733,1.7818-4.5h3.8465a46.79536,46.79536,0,0,1-2.14148,4.5Zm2.11438-5.5q.7056-2.18811,1.246-4.5h4.174c-.434,1.53967-.929,3.04407-1.495,4.5Zm1.48035-5.5q.47571-2.20285.79193-4.5h4.38361c-.25446,1.53156-.57953,3.03119-.96112,4.5Zm.91565-5.5q.27008-2.21494.38562-4.5H85.1413q-.13751,2.2847-.46277,4.5Zm.38562-11q-.11462-2.28378-.38562-4.5h4.405q.3241,2.21393.46277,4.5Zm-.50934-5.5q-.31732-2.29367-.79193-4.5h4.21442c.38159,1.46881.70667,2.96844.96112,4.5Zm4.459-4.5h4.2016a45.45036,45.45036,0,0,1,1.11121,4.5H85.54242Q85.16833,38.95633,84.60883,36.75Zm-2.13715-6.5a47.93108,47.93108,0,0,0-2.10052-4.5h3.44257a44.31031,44.31031,0,0,1,2.47559,4.5Zm-2.64532-5.5a44.6922,44.6922,0,0,0-2.895-4.5h2.75824a43.35058,43.35058,0,0,1,3.46106,4.5Zm-3.66077-5.5a40.44424,40.44424,0,0,0-4.07812-4.5h1.74768a41.89363,41.89363,0,0,1,4.96082,4.5ZM70.986,13.75a35.51288,35.51288,0,0,0-5.52228-3.98755A39.89074,39.89074,0,0,1,72.49164,13.75ZM51.11389,7.04a5.49661,5.49661,0,0,1,.91992,1.21H51.3822C51.292,7.76544,51.20239,7.36877,51.11389,7.04ZM49.61664,8.25A8.39179,8.39179,0,0,1,50,6.75a8.39179,8.39179,0,0,1,.38336,1.5Zm-.99884,0h-.65161a5.49661,5.49661,0,0,1,.91992-1.21C48.79761,7.36877,48.708,7.76544,48.6178,8.25ZM34.53625,9.76245A35.51288,35.51288,0,0,0,29.014,13.75H27.50836A39.89074,39.89074,0,0,1,34.53625,9.76245ZM27.91254,14.75a40.44424,40.44424,0,0,0-4.07812,4.5H21.204a41.89363,41.89363,0,0,1,4.96082-4.5Zm-4.84387,5.5a44.6922,44.6922,0,0,0-2.895,4.5H16.84937a43.35058,43.35058,0,0,1,3.46106-4.5Zm-3.43982,5.5a47.93108,47.93108,0,0,0-2.10052,4.5H13.71069a44.31031,44.31031,0,0,1,2.47559-4.5Zm-2.49261,5.5q-.83176,2.18811-1.46887,4.5H11.50714a44.94262,44.94262,0,0,1,1.72827-4.5Zm-1.74506,5.5q-.56085,2.20285-.93359,4.5H10.07837a45.45036,45.45036,0,0,1,1.11121-4.5Zm-1.07947,5.5q-.31842,2.21494-.45459,4.5H9.37561q.159-2.2847.535-4.5Zm.14587,16.5q.37408,2.29367.93359,4.5h-4.2016a45.45036,45.45036,0,0,1-1.11121-4.5Zm3.07074,11a47.93108,47.93108,0,0,0,2.10052,4.5H16.18628a44.31031,44.31031,0,0,1-2.47559-4.5Zm2.64532,5.5a44.6922,44.6922,0,0,0,2.895,4.5H20.31042a43.35058,43.35058,0,0,1-3.46106-4.5Zm3.66077,5.5a40.44424,40.44424,0,0,0,4.07813,4.5H26.16486a41.89363,41.89363,0,0,1-4.96082-4.5Zm5.17957,5.5a35.51288,35.51288,0,0,0,5.52228,3.98755A39.89074,39.89074,0,0,1,27.50836,86.25Zm19.87213,6.71a5.49661,5.49661,0,0,1-.91992-1.21h.65161C48.708,92.23456,48.79761,92.63123,48.88611,92.96Zm1.49725-1.21A8.39179,8.39179,0,0,1,50,93.25a8.39179,8.39179,0,0,1-.38336-1.5Zm.99884,0h.65161a5.49661,5.49661,0,0,1-.91992,1.21C51.20239,92.63123,51.292,92.23456,51.3822,91.75Zm14.08154-1.51245A35.51288,35.51288,0,0,0,70.986,86.25h1.50562A39.89074,39.89074,0,0,1,65.46375,90.23755ZM72.08746,85.25a40.44424,40.44424,0,0,0,4.07813-4.5H78.796a41.89363,41.89363,0,0,1-4.96082,4.5Zm4.84387-5.5a44.6922,44.6922,0,0,0,2.895-4.5h3.32428a43.35058,43.35058,0,0,1-3.46106,4.5Zm3.43982-5.5a47.93108,47.93108,0,0,0,2.10052-4.5h3.81763a44.31031,44.31031,0,0,1-2.47559,4.5Zm2.49261-5.5q.83176-2.18811,1.46887-4.5h4.16022a44.94262,44.94262,0,0,1-1.72827,4.5Zm1.74506-5.5q.56085-2.20285.93359-4.5h4.37921a45.45036,45.45036,0,0,1-1.11121,4.5Zm1.07947-5.5q.31842-2.21494.45459-4.5h4.48151q-.159,2.2847-.535,4.5Zm.45459-11q-.13513-2.28378-.45459-4.5h4.40106q.37463,2.21393.535,4.5Zm4.96021-4.5h1.69086c.092.50128.16815,1.00885.24176,1.51752.04218.29126.096.57831.13208.87146.08594.69922.14362,1.40491.19434,2.111H91.62659Q91.47095,44.46622,91.10309,42.25Zm-84.5296,5.5h1.7301Q8.25113,48.86823,8.25,50q0,1.13187.05359,2.25h-1.73C6.533,51.50134,6.5,50.74756,6.5,50,6.5,49.25336,6.533,48.49963,6.57349,47.75Zm86.853,4.5h-1.7301q.05246-1.11823.05359-2.25,0-1.13187-.05359-2.25h1.73C93.467,48.49469,93.5,49.24634,93.5,50,93.5,50.75269,93.467,51.50433,93.42651,52.25Z"/></g></svg>