<svg viewBox="0 0 100 100"><circle cx="16.302" cy="23.792" r="1.326"/><circle cx="20.047" cy="23.792" r="1.326"/><circle cx="23.791" cy="23.792" r="1.326"/><circle cx="27.535" cy="23.792" r="1.326"/><circle cx="31.28" cy="23.792" r="1.326"/><circle cx="35.023" cy="23.792" r="1.326"/><circle cx="38.768" cy="23.792" r="1.327"/><circle cx="42.512" cy="23.792" r="1.327"/><circle cx="53.743" cy="23.792" r="1.327"/><circle cx="64.977" cy="23.792" r="1.326"/><circle cx="76.209" cy="23.792" r="1.327"/><circle cx="12.558" cy="27.536" r="1.326"/><circle cx="16.302" cy="27.536" r="1.326"/><circle cx="20.047" cy="27.536" r="1.326"/><circle cx="23.791" cy="27.536" r="1.326"/><circle cx="31.28" cy="27.536" r="1.326"/><circle cx="35.023" cy="27.536" r="1.326"/><circle cx="38.768" cy="27.536" r="1.327"/><circle cx="61.232" cy="27.536" r="1.327"/><circle cx="68.721" cy="27.536" r="1.326"/><circle cx="72.465" cy="27.536" r="1.326"/><circle cx="76.209" cy="27.536" r="1.327"/><circle cx="79.953" cy="27.536" r="1.327"/><circle cx="83.697" cy="27.536" r="1.326"/><circle cx="87.439" cy="27.536" r="1.327"/><circle cx="1.326" cy="31.281" r="1.327"/><circle cx="5.07" cy="31.281" r="1.327"/><circle cx="8.813" cy="31.281" r="1.327"/><circle cx="12.558" cy="31.281" r="1.326"/><circle cx="16.302" cy="31.281" r="1.326"/><circle cx="20.047" cy="31.281" r="1.326"/><circle cx="23.791" cy="31.281" r="1.326"/><circle cx="27.535" cy="31.281" r="1.326"/><circle cx="35.023" cy="31.281" r="1.326"/><circle cx="38.768" cy="31.281" r="1.327"/><path d="M55.068 31.281a1.326 1.326 0 11-2.651-.001 1.326 1.326 0 012.651.001z"/><circle cx="57.488" cy="31.281" r="1.326"/><circle cx="61.232" cy="31.281" r="1.327"/><circle cx="64.977" cy="31.281" r="1.326"/><circle cx="68.721" cy="31.281" r="1.326"/><circle cx="72.465" cy="31.281" r="1.326"/><circle cx="76.209" cy="31.281" r="1.327"/><circle cx="79.953" cy="31.281" r="1.327"/><circle cx="83.697" cy="31.281" r="1.326"/><circle cx="87.439" cy="31.281" r="1.327"/><circle cx="91.186" cy="31.281" r="1.327"/><circle cx="1.326" cy="35.023" r="1.327"/><circle cx="5.07" cy="35.023" r="1.327"/><circle cx="8.813" cy="35.023" r="1.327"/><circle cx="12.558" cy="35.023" r="1.326"/><circle cx="16.302" cy="35.023" r="1.326"/><circle cx="20.047" cy="35.023" r="1.326"/><circle cx="23.791" cy="35.023" r="1.326"/><circle cx="27.535" cy="35.023" r="1.326"/><circle cx="35.023" cy="35.023" r="1.326"/><circle cx="42.512" cy="35.023" r="1.327"/><circle cx="50" cy="35.023" r="1.327"/><circle cx="53.743" cy="35.023" r="1.327"/><circle cx="57.488" cy="35.023" r="1.326"/><circle cx="61.232" cy="35.023" r="1.327"/><circle cx="64.977" cy="35.023" r="1.326"/><circle cx="68.721" cy="35.023" r="1.326"/><circle cx="72.465" cy="35.023" r="1.326"/><circle cx="76.209" cy="35.023" r="1.327"/><circle cx="79.953" cy="35.023" r="1.327"/><circle cx="83.697" cy="35.023" r="1.326"/><circle cx="87.439" cy="35.023" r="1.327"/><circle cx="91.186" cy="35.023" r="1.327"/><circle cx="1.326" cy="38.768" r="1.327"/><circle cx="5.07" cy="38.768" r="1.327"/><circle cx="8.813" cy="38.768" r="1.327"/><circle cx="12.558" cy="38.768" r="1.326"/><circle cx="16.302" cy="38.768" r="1.326"/><circle cx="20.047" cy="38.768" r="1.326"/><circle cx="23.791" cy="38.768" r="1.326"/><circle cx="27.535" cy="38.768" r="1.326"/><circle cx="46.256" cy="38.768" r="1.327"/><circle cx="50" cy="38.768" r="1.327"/><circle cx="53.743" cy="38.768" r="1.327"/><circle cx="57.488" cy="38.768" r="1.326"/><circle cx="61.232" cy="38.768" r="1.327"/><circle cx="64.977" cy="38.768" r="1.326"/><circle cx="68.721" cy="38.768" r="1.326"/><circle cx="72.465" cy="38.768" r="1.326"/><circle cx="76.209" cy="38.768" r="1.327"/><circle cx="79.953" cy="38.768" r="1.327"/><circle cx="83.697" cy="38.768" r="1.326"/><circle cx="87.439" cy="38.768" r="1.327"/><circle cx="91.186" cy="38.768" r="1.327"/><circle cx="12.558" cy="42.513" r="1.326"/><circle cx="16.302" cy="42.513" r="1.326"/><circle cx="20.047" cy="42.513" r="1.326"/><circle cx="23.791" cy="42.513" r="1.326"/><circle cx="27.535" cy="42.513" r="1.326"/><circle cx="31.28" cy="42.513" r="1.326"/><circle cx="46.256" cy="42.513" r="1.327"/><circle cx="50" cy="42.513" r="1.327"/><circle cx="53.743" cy="42.513" r="1.327"/><circle cx="57.488" cy="42.513" r="1.326"/><circle cx="61.232" cy="42.513" r="1.327"/><circle cx="64.977" cy="42.513" r="1.326"/><circle cx="68.721" cy="42.513" r="1.326"/><circle cx="72.465" cy="42.513" r="1.326"/><circle cx="76.209" cy="42.513" r="1.327"/><circle cx="79.953" cy="42.513" r="1.327"/><circle cx="83.697" cy="42.513" r="1.326"/><circle cx="91.186" cy="42.513" r="1.327"/><circle cx="12.558" cy="46.257" r="1.326"/><circle cx="16.302" cy="46.257" r="1.326"/><circle cx="20.047" cy="46.257" r="1.326"/><circle cx="23.791" cy="46.257" r="1.326"/><circle cx="27.535" cy="46.257" r="1.326"/><circle cx="46.256" cy="46.257" r="1.327"/><circle cx="53.743" cy="46.257" r="1.327"/><circle cx="57.488" cy="46.257" r="1.326"/><circle cx="61.232" cy="46.257" r="1.327"/><circle cx="64.977" cy="46.257" r="1.326"/><circle cx="68.721" cy="46.257" r="1.326"/><circle cx="72.465" cy="46.257" r="1.326"/><circle cx="76.209" cy="46.257" r="1.327"/><circle cx="79.953" cy="46.257" r="1.327"/><circle cx="83.697" cy="46.257" r="1.326"/><circle cx="87.439" cy="46.257" r="1.327"/><circle cx="16.302" cy="50" r="1.326"/><circle cx="20.047" cy="50" r="1.326"/><circle cx="23.791" cy="50" r="1.326"/><circle cx="42.512" cy="50" r="1.327"/><circle cx="46.256" cy="50" r="1.327"/><circle cx="50" cy="50" r="1.327"/><circle cx="53.743" cy="50" r="1.327"/><circle cx="57.488" cy="50" r="1.326"/><circle cx="61.232" cy="50" r="1.327"/><circle cx="64.977" cy="50" r="1.326"/><circle cx="68.721" cy="50" r="1.326"/><circle cx="72.465" cy="50" r="1.326"/><circle cx="76.209" cy="50" r="1.327"/><circle cx="79.953" cy="50" r="1.327"/><circle cx="83.697" cy="50" r="1.326"/><path d="M21.373 53.747a1.326 1.326 0 11-2.652-.006 1.326 1.326 0 012.652.006zM25.118 53.747a1.326 1.326 0 11-2.652-.006 1.326 1.326 0 012.652.006zM28.861 53.747a1.326 1.326 0 11-2.652-.006 1.326 1.326 0 012.652.006zM43.838 53.747a1.326 1.326 0 11-2.652-.006 1.326 1.326 0 012.652.006zM47.583 53.747a1.326 1.326 0 11-2.652-.006 1.326 1.326 0 012.652.006zM51.327 53.747a1.327 1.327 0 11-2.653-.007 1.327 1.327 0 012.653.007zM55.068 53.747c0 .729-.592 1.323-1.323 1.323a1.328 1.328 0 01-1.329-1.323c0-.735.596-1.329 1.329-1.329s1.323.594 1.323 1.329zM58.814 53.747c0 .729-.596 1.323-1.328 1.323a1.326 1.326 0 111.328-1.323zM62.559 53.747a1.326 1.326 0 11-2.652-.006 1.326 1.326 0 012.652.006zM70.046 53.747a1.324 1.324 0 01-2.651 0 1.326 1.326 0 112.651 0zM77.536 53.747a1.327 1.327 0 11-2.653-.007 1.327 1.327 0 012.653.007zM81.279 53.747a1.326 1.326 0 11-2.652-.006 1.326 1.326 0 012.652.006z"/><circle cx="27.535" cy="57.489" r="1.326"/><circle cx="31.28" cy="57.489" r="1.326"/><circle cx="46.256" cy="57.489" r="1.327"/><circle cx="50" cy="57.489" r="1.327"/><circle cx="53.743" cy="57.489" r="1.327"/><circle cx="57.488" cy="57.489" r="1.326"/><circle cx="27.535" cy="61.234" r="1.326"/><circle cx="31.28" cy="61.234" r="1.326"/><circle cx="23.791" cy="61.234" r="1.326"/><circle cx="35.023" cy="61.234" r="1.326"/><circle cx="50" cy="61.234" r="1.327"/><path d="M55.068 61.234c0 .731-.592 1.324-1.323 1.324a1.327 1.327 0 01-1.329-1.324c0-.733.596-1.327 1.329-1.327s1.323.594 1.323 1.327z"/><circle cx="57.488" cy="61.234" r="1.326"/><circle cx="76.209" cy="61.234" r="1.327"/><circle cx="79.953" cy="61.234" r="1.327"/><circle cx="83.697" cy="61.234" r="1.326"/><circle cx="87.439" cy="61.234" r="1.327"/><circle cx="27.535" cy="64.979" r="1.326"/><circle cx="31.28" cy="64.979" r="1.326"/><circle cx="35.023" cy="64.979" r="1.326"/><circle cx="50" cy="64.979" r="1.327"/><path d="M55.068 64.979a1.325 1.325 0 11-2.652 0 1.33 1.33 0 011.329-1.328 1.322 1.322 0 011.323 1.328z"/><circle cx="61.232" cy="64.979" r="1.327"/><circle cx="79.953" cy="64.979" r="1.327"/><circle cx="83.697" cy="64.979" r="1.326"/><circle cx="83.697" cy="68.722" r="1.326"/><circle cx="87.439" cy="64.979" r="1.327"/><circle cx="91.186" cy="64.979" r="1.327"/><circle cx="27.535" cy="68.722" r="1.326"/><circle cx="31.28" cy="68.722" r="1.326"/><circle cx="53.743" cy="68.722" r="1.327"/><circle cx="79.953" cy="68.722" r="1.327"/><circle cx="87.439" cy="68.722" r="1.327"/><circle cx="27.535" cy="72.466" r="1.326"/><circle cx="27.535" cy="76.209" r="1.326"/><circle cx="94.93" cy="31.281" r="1.326"/><circle cx="94.93" cy="35.023" r="1.326"/><circle cx="98.674" cy="35.023" r="1.326"/><circle cx="94.93" cy="72.466" r="1.326"/></svg>